<svg width="43" height="41" viewBox="0 0 43 41" fill="none" xmlns="http://www.w3.org/2000/svg">
<path d="M0 33.288H8.064C15.876 33.288 21.276 29.076 21.276 19.752C21.276 10.428 15.876 6.468 7.704 6.468H0V33.288ZM6.444 28.104V11.616H7.308C11.628 11.616 14.688 13.38 14.688 19.752C14.688 26.124 11.628 28.104 7.308 28.104H6.444Z" fill="#0055FF"/>
<path d="M32.316 33.792C38.796 33.792 42.54 29.868 42.54 25.404C42.54 21.624 40.56 19.392 37.248 18.06L33.9 16.728C31.524 15.792 29.868 15.216 29.868 13.704C29.868 12.3 31.056 11.508 33.036 11.508C35.124 11.508 36.78 12.228 38.544 13.56L41.748 9.528C39.408 7.188 36.132 6 33.036 6C27.348 6 23.316 9.6 23.316 14.1C23.316 17.988 25.944 20.328 28.752 21.444L32.172 22.884C34.476 23.856 35.952 24.36 35.952 25.908C35.952 27.348 34.836 28.248 32.46 28.248C30.336 28.248 27.852 27.132 25.98 25.512L22.308 29.94C25.08 32.496 28.824 33.792 32.316 33.792Z" fill="#0055FF"/>
<path d="M3.904 10.288H16.904V30.288H3.904V10.288Z" fill="#0055FF"/>
</svg>
