<svg width="135" height="73" viewBox="0 0 135 73" fill="none" xmlns="http://www.w3.org/2000/svg">
<path d="M0.234375 28V2.30078H8.30273C12.498 2.30078 15.7559 3.4082 18.0762 5.62305C20.3965 7.83789 21.5566 10.9316 21.5566 14.9043C21.5566 19.1348 20.3496 22.375 17.9355 24.625C15.5332 26.875 12.0586 28 7.51172 28H0.234375ZM5.68359 23.5H8.02148C13.2715 23.5 15.8965 20.6816 15.8965 15.0449C15.8965 9.52539 13.459 6.76562 8.58398 6.76562H5.68359V23.5ZM25.2656 18.3145C25.2656 15.0215 26.0859 12.4785 27.7266 10.6855C29.3789 8.88086 31.6582 7.97852 34.5645 7.97852C37.3418 7.97852 39.5039 8.76953 41.0508 10.3516C42.5977 11.9336 43.3711 14.1191 43.3711 16.9082V19.5098H30.6973C30.7559 21.0332 31.207 22.2227 32.0508 23.0781C32.8945 23.9336 34.0781 24.3613 35.6016 24.3613C36.7852 24.3613 37.9043 24.2383 38.959 23.9922C40.0137 23.7461 41.1152 23.3535 42.2637 22.8145V26.9629C41.3262 27.4316 40.3242 27.7773 39.2578 28C38.1914 28.2344 36.8906 28.3516 35.3555 28.3516C32.1914 28.3516 29.7188 27.4785 27.9375 25.7324C26.1562 23.9863 25.2656 21.5137 25.2656 18.3145ZM30.8203 15.9414H38.3438C38.3203 14.6172 37.9746 13.5977 37.3066 12.8828C36.6387 12.1562 35.7363 11.793 34.5996 11.793C33.4629 11.793 32.5723 12.1562 31.9277 12.8828C31.2832 13.5977 30.9141 14.6172 30.8203 15.9414ZM46.5352 13.4629C46.5352 11.7168 47.209 10.3691 48.5566 9.41992C49.916 8.45898 51.8379 7.97852 54.3223 7.97852C56.6895 7.97852 58.9922 8.49414 61.2305 9.52539L59.6133 13.3926C58.6289 12.9707 57.709 12.625 56.8535 12.3555C55.998 12.0859 55.125 11.9512 54.2344 11.9512C52.6523 11.9512 51.8613 12.3789 51.8613 13.2344C51.8613 13.7148 52.1133 14.1309 52.6172 14.4824C53.1328 14.834 54.252 15.3555 55.9746 16.0469C57.5098 16.668 58.6348 17.248 59.3496 17.7871C60.0645 18.3262 60.5918 18.9473 60.9316 19.6504C61.2715 20.3535 61.4414 21.1914 61.4414 22.1641C61.4414 24.1797 60.7383 25.7148 59.332 26.7695C57.9375 27.8242 55.8457 28.3516 53.0566 28.3516C51.627 28.3516 50.4082 28.252 49.4004 28.0527C48.3926 27.8652 47.4492 27.584 46.5703 27.209V22.7793C47.5664 23.248 48.6855 23.6406 49.9277 23.957C51.1816 24.2734 52.2832 24.4316 53.2324 24.4316C55.1777 24.4316 56.1504 23.8691 56.1504 22.7441C56.1504 22.3223 56.0215 21.9824 55.7637 21.7246C55.5059 21.4551 55.0605 21.1562 54.4277 20.8281C53.7949 20.4883 52.9512 20.0957 51.8965 19.6504C50.3848 19.0176 49.2715 18.4316 48.5566 17.8926C47.8535 17.3535 47.3379 16.7383 47.0098 16.0469C46.6934 15.3438 46.5352 14.4824 46.5352 13.4629ZM65.3965 3.26758C65.3965 1.52148 66.3691 0.648438 68.3145 0.648438C70.2598 0.648438 71.2324 1.52148 71.2324 3.26758C71.2324 4.09961 70.9863 4.75 70.4941 5.21875C70.0137 5.67578 69.2871 5.9043 68.3145 5.9043C66.3691 5.9043 65.3965 5.02539 65.3965 3.26758ZM65.625 28V8.34766H70.9863V28H65.625ZM75.4336 18.209C75.4336 14.9863 76.1016 12.4785 77.4375 10.6855C78.7852 8.88086 80.6367 7.97852 82.9922 7.97852C85.4062 7.97852 87.3047 8.93945 88.6875 10.8613H88.8281L89.2676 8.34766H93.8027V28.0352C93.8027 30.8594 92.9766 32.998 91.3242 34.4512C89.6836 35.916 87.2344 36.6484 83.9766 36.6484C81.1055 36.6484 78.6562 36.2617 76.6289 35.4883V31.1992C79.0078 32.207 81.5625 32.7109 84.293 32.7109C87.0469 32.7109 88.4238 31.2227 88.4238 28.2461V27.8594L88.582 25.4512H88.4238C87.1699 27.3848 85.3125 28.3516 82.8516 28.3516C80.4961 28.3516 78.668 27.4434 77.3672 25.627C76.0781 23.8105 75.4336 21.3379 75.4336 18.209ZM80.9004 18.2793C80.9004 20.248 81.2109 21.7188 81.832 22.6914C82.4648 23.6641 83.4434 24.1504 84.7676 24.1504C86.209 24.1504 87.2402 23.7402 87.8613 22.9199C88.4824 22.0879 88.793 20.7461 88.793 18.8945V18.2441C88.793 16.1465 88.4648 14.6406 87.8086 13.7266C87.1641 12.8008 86.1211 12.3379 84.6797 12.3379C82.1602 12.3379 80.9004 14.3184 80.9004 18.2793ZM99.4102 28V8.34766H103.506L104.227 10.8613H104.525C105.123 9.91211 105.943 9.19727 106.986 8.7168C108.041 8.22461 109.236 7.97852 110.572 7.97852C112.857 7.97852 114.592 8.59961 115.775 9.8418C116.959 11.0723 117.551 12.8535 117.551 15.1855V28H112.189V16.5215C112.189 15.1035 111.938 14.043 111.434 13.3398C110.93 12.625 110.127 12.2676 109.025 12.2676C107.525 12.2676 106.441 12.7715 105.773 13.7793C105.105 14.7754 104.771 16.4336 104.771 18.7539V28H99.4102ZM8.00391 62.8047V57.7422C9.73828 58.5156 11.2031 59.0605 12.3984 59.377C13.6055 59.6934 14.707 59.8516 15.7031 59.8516C16.8984 59.8516 17.8125 59.623 18.4453 59.166C19.0898 58.709 19.4121 58.0293 19.4121 57.127C19.4121 56.623 19.2715 56.1777 18.9902 55.791C18.709 55.3926 18.293 55.0117 17.7422 54.6484C17.2031 54.2852 16.0957 53.7051 14.4199 52.9082C12.8496 52.1699 11.6719 51.4609 10.8867 50.7812C10.1016 50.1016 9.47461 49.3105 9.00586 48.4082C8.53711 47.5059 8.30273 46.4512 8.30273 45.2441C8.30273 42.9707 9.07031 41.1836 10.6055 39.8828C12.1523 38.582 14.2852 37.9316 17.0039 37.9316C18.3398 37.9316 19.6113 38.0898 20.8184 38.4062C22.0371 38.7227 23.3086 39.168 24.6328 39.7422L22.875 43.9785C21.5039 43.416 20.3672 43.0234 19.4648 42.8008C18.5742 42.5781 17.6953 42.4668 16.8281 42.4668C15.7969 42.4668 15.0059 42.707 14.4551 43.1875C13.9043 43.668 13.6289 44.2949 13.6289 45.0684C13.6289 45.5488 13.7402 45.9707 13.9629 46.334C14.1855 46.6855 14.5371 47.0312 15.0176 47.3711C15.5098 47.6992 16.6641 48.2969 18.4805 49.1641C20.8828 50.3125 22.5293 51.4668 23.4199 52.627C24.3105 53.7754 24.7559 55.1875 24.7559 56.8633C24.7559 59.1836 23.918 61.0117 22.2422 62.3477C20.5781 63.6836 18.2578 64.3516 15.2812 64.3516C12.5391 64.3516 10.1133 63.8359 8.00391 62.8047ZM26.1797 44.3477H32.0508L35.7598 55.4043C36.0762 56.3652 36.293 57.502 36.4102 58.8145H36.5156C36.6445 57.6074 36.8965 56.4707 37.2715 55.4043L40.9102 44.3477H46.6582L38.3438 66.5137C37.582 68.5645 36.4922 70.0996 35.0742 71.1191C33.668 72.1387 32.0215 72.6484 30.1348 72.6484C29.209 72.6484 28.3008 72.5488 27.4102 72.3496V68.0957C28.0547 68.248 28.7578 68.3242 29.5195 68.3242C30.4688 68.3242 31.2949 68.0312 31.998 67.4453C32.7129 66.8711 33.2695 65.998 33.668 64.8262L33.9844 63.8594L26.1797 44.3477ZM48.293 49.4629C48.293 47.7168 48.9668 46.3691 50.3145 45.4199C51.6738 44.459 53.5957 43.9785 56.0801 43.9785C58.4473 43.9785 60.75 44.4941 62.9883 45.5254L61.3711 49.3926C60.3867 48.9707 59.4668 48.625 58.6113 48.3555C57.7559 48.0859 56.8828 47.9512 55.9922 47.9512C54.4102 47.9512 53.6191 48.3789 53.6191 49.2344C53.6191 49.7148 53.8711 50.1309 54.375 50.4824C54.8906 50.834 56.0098 51.3555 57.7324 52.0469C59.2676 52.668 60.3926 53.248 61.1074 53.7871C61.8223 54.3262 62.3496 54.9473 62.6895 55.6504C63.0293 56.3535 63.1992 57.1914 63.1992 58.1641C63.1992 60.1797 62.4961 61.7148 61.0898 62.7695C59.6953 63.8242 57.6035 64.3516 54.8145 64.3516C53.3848 64.3516 52.166 64.252 51.1582 64.0527C50.1504 63.8652 49.207 63.584 48.3281 63.209V58.7793C49.3242 59.248 50.4434 59.6406 51.6855 59.957C52.9395 60.2734 54.041 60.4316 54.9902 60.4316C56.9355 60.4316 57.9082 59.8691 57.9082 58.7441C57.9082 58.3223 57.7793 57.9824 57.5215 57.7246C57.2637 57.4551 56.8184 57.1562 56.1855 56.8281C55.5527 56.4883 54.709 56.0957 53.6543 55.6504C52.1426 55.0176 51.0293 54.4316 50.3145 53.8926C49.6113 53.3535 49.0957 52.7383 48.7676 52.0469C48.4512 51.3438 48.293 50.4824 48.293 49.4629ZM65.3965 48.373V46.1055L68.3496 44.3125L69.8965 40.1641H73.3242V44.3477H78.8262V48.373H73.3242V57.8477C73.3242 58.6094 73.5352 59.1719 73.957 59.5352C74.3906 59.8984 74.959 60.0801 75.6621 60.0801C76.5996 60.0801 77.7246 59.875 79.0371 59.4648V63.4551C77.7012 64.0527 76.0605 64.3516 74.1152 64.3516C71.9707 64.3516 70.4062 63.8125 69.4219 62.7344C68.4492 61.6445 67.9629 60.0156 67.9629 57.8477V48.373H65.3965ZM81.832 54.3145C81.832 51.0215 82.6523 48.4785 84.293 46.6855C85.9453 44.8809 88.2246 43.9785 91.1309 43.9785C93.9082 43.9785 96.0703 44.7695 97.6172 46.3516C99.1641 47.9336 99.9375 50.1191 99.9375 52.9082V55.5098H87.2637C87.3223 57.0332 87.7734 58.2227 88.6172 59.0781C89.4609 59.9336 90.6445 60.3613 92.168 60.3613C93.3516 60.3613 94.4707 60.2383 95.5254 59.9922C96.5801 59.7461 97.6816 59.3535 98.8301 58.8145V62.9629C97.8926 63.4316 96.8906 63.7773 95.8242 64C94.7578 64.2344 93.457 64.3516 91.9219 64.3516C88.7578 64.3516 86.2852 63.4785 84.5039 61.7324C82.7227 59.9863 81.832 57.5137 81.832 54.3145ZM87.3867 51.9414H94.9102C94.8867 50.6172 94.541 49.5977 93.873 48.8828C93.2051 48.1562 92.3027 47.793 91.166 47.793C90.0293 47.793 89.1387 48.1562 88.4941 48.8828C87.8496 49.5977 87.4805 50.6172 87.3867 51.9414ZM104.297 64V44.3477H108.393L109.113 46.8613H109.412C109.939 45.959 110.701 45.2559 111.697 44.752C112.693 44.2363 113.836 43.9785 115.125 43.9785C118.066 43.9785 120.059 44.9395 121.102 46.8613H121.576C122.104 45.9473 122.877 45.2383 123.896 44.7344C124.928 44.2305 126.088 43.9785 127.377 43.9785C129.604 43.9785 131.285 44.5527 132.422 45.7012C133.57 46.8379 134.145 48.666 134.145 51.1855V64H128.766V52.5215C128.766 51.1035 128.525 50.043 128.045 49.3398C127.576 48.625 126.832 48.2676 125.812 48.2676C124.5 48.2676 123.516 48.7363 122.859 49.6738C122.215 50.6113 121.893 52.0996 121.893 54.1387V64H116.531V52.5215C116.531 51.1035 116.291 50.043 115.811 49.3398C115.342 48.625 114.598 48.2676 113.578 48.2676C112.207 48.2676 111.211 48.7715 110.59 49.7793C109.969 50.7871 109.658 52.4453 109.658 54.7539V64H104.297Z" fill="#0055FF"/>
</svg>
